<svg width="24" height="24" viewBox="0 0 24 24" fill="none" xmlns="http://www.w3.org/2000/svg">
<circle cx="17" cy="8" r="4" fill="#FFABAB"/>
<path fill-rule="evenodd" clip-rule="evenodd" d="M13.5351 6H5C4.44772 6 4 6.44772 4 7C4 7.55228 4.44772 8 5 8H13C13 7.27143 13.1948 6.58835 13.5351 6ZM17 12C17.9422 12 18.8084 11.6742 19.4919 11.1292C19.7953 11.3009 20 11.6265 20 12C20 12.5523 19.5523 13 19 13H5C4.44772 13 4 12.5523 4 12C4 11.4477 4.44772 11 5 11H14.3542C15.0593 11.6224 15.9856 12 17 12ZM5 16C4.44772 16 4 16.4477 4 17C4 17.5523 4.44772 18 5 18H19C19.5523 18 20 17.5523 20 17C20 16.4477 19.5523 16 19 16H5Z" fill="white"/>
</svg>
